HIERARCHY
ROOT Hips
{
	OFFSET -0.001795 -0.223333 0.028219
	CHANNELS 6 Xposition Yposition Zposition Zrotation Yrotation Xrotation 
	JOINT LeftUpLeg
	{
		OFFSET 0.069520 -0.091406 -0.006815
		CHANNELS 3 Zrotation Yrotation Xrotation
		JOINT LeftLeg
		{
			OFFSET 0.034277 -0.375199 -0.004496
			CHANNELS 3 Zrotation Yrotation Xrotation
			JOINT LeftFoot
			{
				OFFSET -0.013596 -0.397961 -0.043693
				CHANNELS 3 Zrotation Yrotation Xrotation
				JOINT LeftToe
				{
					OFFSET 0.026358 -0.055791 0.119288
					CHANNELS 3 Zrotation Yrotation Xrotation
					End Site
					{
						OFFSET 0.000000 0.000000 0.000000
					}
				}
			}
		}
	}
	JOINT RightUpLeg
	{
		OFFSET -0.067670 -0.090522 -0.004320
		CHANNELS 3 Zrotation Yrotation Xrotation
		JOINT RightLeg
		{
			OFFSET -0.038290 -0.382569 -0.008850
			CHANNELS 3 Zrotation Yrotation Xrotation
			JOINT RightFoot
			{
				OFFSET 0.015774 -0.398415 -0.042312
				CHANNELS 3 Zrotation Yrotation Xrotation
				JOINT RightToe
				{
					OFFSET -0.025372 -0.048144 0.123348
					CHANNELS 3 Zrotation Yrotation Xrotation
					End Site
					{
						OFFSET 0.000000 0.000000 0.000000
					}
				}
			}
		}
	}
	JOINT Spine
	{
		OFFSET -0.002533 0.108963 -0.026696
		CHANNELS 3 Zrotation Yrotation Xrotation
		JOINT Spine1
		{
			OFFSET 0.005487 0.135180 0.001092
			CHANNELS 3 Zrotation Yrotation Xrotation
			JOINT Spine2
			{
				OFFSET 0.001457 0.052922 0.025425
				CHANNELS 3 Zrotation Yrotation Xrotation
				JOINT Neck
				{
					OFFSET -0.002778 0.213870 -0.042857
					CHANNELS 3 Zrotation Yrotation Xrotation
					JOINT Head
					{
						OFFSET 0.005152 0.064970 0.051349
						CHANNELS 3 Zrotation Yrotation Xrotation
						End Site
						{
							OFFSET 0.000000 0.000000 0.000000
						}
					}
				}
				JOINT LeftShoulder
				{
					OFFSET 0.078845 0.121749 -0.034090
					CHANNELS 3 Zrotation Yrotation Xrotation
					JOINT LeftArm
					{
						OFFSET 0.090977 0.030469 -0.008868
						CHANNELS 3 Zrotation Yrotation Xrotation
						JOINT LeftForeArm
						{
							OFFSET 0.259612 -0.012772 -0.027456
							CHANNELS 3 Zrotation Yrotation Xrotation
							JOINT LeftHand
							{
								OFFSET 0.249234 0.008986 -0.001171
								CHANNELS 3 Zrotation Yrotation Xrotation
								End Site
								{
									OFFSET 0.000000 0.000000 0.000000
								}
							}
						}
					}
				}
				JOINT RightShoulder
				{
					OFFSET -0.081759 0.118833 -0.038615
					CHANNELS 3 Zrotation Yrotation Xrotation
					JOINT RightArm
					{
						OFFSET -0.096012 0.032551 -0.009143
						CHANNELS 3 Zrotation Yrotation Xrotation
						JOINT RightForeArm
						{
							OFFSET -0.253742 -0.013329 -0.021401
							CHANNELS 3 Zrotation Yrotation Xrotation
							JOINT RightHand
							{
								OFFSET -0.255298 0.007772 -0.005559
								CHANNELS 3 Zrotation Yrotation Xrotation
								End Site
								{
									OFFSET 0.000000 0.000000 0.000000
								}
							}
						}
					}
				}
			}
		}
	}
}
MOTION
Frames: 10
Frame Time: 0.050000
0.000000 0.947548 0.000000 0.527441 3.813669 4.013331 5.041398 -0.089041 1.352910 -3.016645 0.337241 -5.581307 4.721199 12.600122 12.353741 0.000000 0.000000 0.000000 -5.817518 0.229967 -1.847172 2.468342 -0.323829 -2.552621 -3.061242 -9.785835 9.074389 0.000000 0.000000 0.000000 8.378710 -0.063009 -1.243182 -5.658503 2.184186 -18.570713 -2.218786 5.075732 26.423815 10.975855 -4.327665 -22.317967 0.000000 0.000000 0.000000 -15.430859 -10.348717 2.727750 -53.326023 -5.991138 -5.759997 -15.192381 -27.494619 4.654955 0.000000 0.000000 0.000000 22.434017 -2.627991 -0.686380 56.978596 13.583071 -1.781689 10.241114 23.580380 3.391516 0.000000 0.000000 0.000000 
0.000384 0.946095 0.000283 0.526333 4.437327 4.526622 5.610616 -0.140097 1.052458 -3.128139 0.337588 -5.818936 4.660965 12.630874 12.743914 0.000000 0.000000 0.000000 -6.071115 0.271871 -2.739611 3.040408 -0.362326 -1.161664 -3.295572 -10.232612 9.298246 0.000000 0.000000 0.000000 9.056180 0.082269 -2.763674 -6.058673 2.330466 -17.847003 -2.792787 4.501706 27.233701 11.027695 -4.318783 -22.848909 0.000000 0.000000 0.000000 -14.961668 -9.363843 2.350274 -53.090625 -6.328494 -5.706921 -15.043798 -28.717967 4.857962 0.000000 0.000000 0.000000 22.127911 -2.504731 -0.652274 58.230088 14.324240 -1.390483 9.580614 22.998091 3.161505 0.000000 0.000000 0.000000 
0.000508 0.946642 0.000180 0.669952 4.688301 4.534015 5.633067 -0.150517 0.878179 -3.406981 0.347721 -5.139757 4.608636 12.495824 12.341578 0.000000 0.000000 0.000000 -6.467014 0.252780 -2.441621 2.759721 -0.345867 -1.956483 -2.844755 -9.475229 10.267746 0.000000 0.000000 0.000000 9.063465 0.139393 -3.279427 -6.157725 2.352918 -18.169987 -2.562946 4.125100 28.397682 10.116907 -4.022502 -21.803139 0.000000 0.000000 0.000000 -15.260361 -9.896927 2.690746 -53.137574 -6.848639 -5.620802 -14.448484 -27.729260 4.576074 0.000000 0.000000 0.000000 22.077923 -2.658743 -0.752898 57.958981 14.320211 -1.565610 9.372601 23.933573 3.299668 0.000000 0.000000 0.000000 
0.000509 0.946662 0.000143 0.664774 5.046710 4.556701 5.953273 -0.175089 0.725259 -3.446588 0.346206 -4.871313 4.604426 12.584891 12.681753 0.000000 0.000000 0.000000 -6.870441 0.264805 -2.922498 3.658998 -0.434606 -1.401625 -3.146548 -10.088369 10.606337 0.000000 0.000000 0.000000 9.291857 0.183940 -3.700832 -6.668346 2.519112 -17.811792 -2.301671 3.467932 29.051009 10.198707 -4.201432 -21.679983 0.000000 0.000000 0.000000 -15.463462 -9.845128 2.777596 -53.425180 -6.928665 -5.690537 -14.247777 -29.004763 4.796715 0.000000 0.000000 0.000000 21.833913 -2.694941 -0.881882 57.993284 15.033303 -1.249720 9.824940 23.698222 3.340006 0.000000 0.000000 0.000000 
0.000449 0.947049 0.000034 0.725016 5.567036 4.453363 5.994949 -0.180923 0.775847 -3.347017 0.336299 -4.713530 3.912777 11.476163 12.222175 0.000000 0.000000 0.000000 -6.933854 0.239909 -2.577017 3.529938 -0.428001 -1.729470 -3.365796 -10.517465 10.960180 0.000000 0.000000 0.000000 8.871774 0.189753 -3.770219 -5.717075 2.268504 -17.425468 -2.791124 3.080114 28.998761 10.097035 -4.298000 -20.876659 0.000000 0.000000 0.000000 -15.484375 -9.782687 2.751715 -53.688581 -6.873641 -5.736186 -14.370995 -29.184457 4.866387 0.000000 0.000000 0.000000 21.995506 -2.681579 -0.890199 57.497788 15.002426 -1.298468 9.799119 24.420267 3.458447 0.000000 0.000000 0.000000 
0.000409 0.947345 -0.000059 0.606347 5.734222 4.450556 6.151391 -0.199858 0.500363 -3.005350 0.314452 -4.136899 3.806379 11.332019 12.237197 0.000000 0.000000 0.000000 -7.043818 0.245550 -2.803072 3.914211 -0.468342 -1.449302 -3.641970 -11.092675 11.378618 0.000000 0.000000 0.000000 8.869358 0.188870 -3.781414 -5.842095 2.311330 -17.309290 -2.491572 2.839641 29.202981 10.135111 -4.338055 -20.993236 0.000000 0.000000 0.000000 -15.777021 -9.695585 2.738206 -53.405141 -6.945152 -5.701141 -14.206914 -29.742515 4.935611 0.000000 0.000000 0.000000 21.786043 -2.638689 -0.900296 57.634230 15.209339 -1.195627 9.620951 24.374258 3.406289 0.000000 0.000000 0.000000 
0.000420 0.947404 -0.000115 0.539737 6.020663 4.293560 6.366669 -0.212497 0.465042 -3.033665 0.313621 -4.062169 3.798477 11.422457 12.580215 0.000000 0.000000 0.000000 -6.966154 0.241505 -2.867702 3.993129 -0.478875 -1.217192 -3.739294 -11.260181 11.464635 0.000000 0.000000 0.000000 8.792270 0.174125 -3.632145 -5.639274 2.265483 -17.099327 -2.659613 2.439998 29.257677 10.408743 -4.560817 -21.020622 0.000000 0.000000 0.000000 -15.848166 -9.555008 2.719978 -53.401715 -6.653108 -5.845744 -14.336414 -30.116658 5.056404 0.000000 0.000000 0.000000 21.854448 -2.513748 -0.884237 57.608015 15.206313 -1.209398 9.581301 25.061754 3.513405 0.000000 0.000000 0.000000 
0.000511 0.947166 -0.000156 0.229624 6.363425 4.203949 6.701919 -0.239565 0.196574 -3.082245 0.312239 -3.748974 3.685620 11.197601 12.224186 0.000000 0.000000 0.000000 -6.875230 0.251144 -3.246063 4.433607 -0.532082 -0.720617 -4.107326 -11.913327 11.306820 0.000000 0.000000 0.000000 8.790262 0.162440 -3.537047 -5.504011 2.243344 -16.735581 -2.589741 2.204712 29.225088 10.904406 -4.967175 -20.738513 0.000000 0.000000 0.000000 -15.746690 -9.645804 2.777843 -53.102495 -6.647205 -5.830236 -14.501349 -30.676176 5.200892 0.000000 0.000000 0.000000 21.788348 -2.381596 -0.812090 57.657805 15.560093 -1.028894 9.548723 25.775685 3.631267 0.000000 0.000000 0.000000 
0.000582 0.947012 -0.000206 0.057636 6.309943 4.219238 6.964810 -0.254762 0.036326 -3.184605 0.317864 -3.512531 3.787024 11.276540 11.914498 0.000000 0.000000 0.000000 -6.808737 0.268113 -3.600946 4.638106 -0.556121 -0.467658 -4.232717 -12.156471 11.277195 0.000000 0.000000 0.000000 8.813387 0.149680 -3.424360 -5.427235 2.220162 -16.683960 -2.478042 2.205832 29.392410 11.416381 -5.394764 -20.427726 0.000000 0.000000 0.000000 -15.196077 -9.545891 2.769952 -53.252214 -6.664340 -5.886195 -14.805396 -31.362594 5.421598 0.000000 0.000000 0.000000 21.635361 -2.482884 -0.875226 57.594536 16.085031 -0.787686 9.373614 26.355454 3.699938 0.000000 0.000000 0.000000 
0.000634 0.946556 -0.000233 -0.165168 6.287546 4.329334 7.413392 -0.282569 -0.276179 -3.472083 0.334904 -3.091281 3.927086 11.441720 11.704238 0.000000 0.000000 0.000000 -6.776344 0.290465 -4.070009 4.912852 -0.590758 -0.070527 -4.341649 -12.353316 11.143200 0.000000 0.000000 0.000000 8.822959 0.156163 -3.516156 -5.333161 2.196981 -16.429467 -2.166158 2.057278 29.417956 11.933275 -5.822037 -20.243591 0.000000 0.000000 0.000000 -14.804837 -9.482009 2.796760 -53.173879 -6.519619 -5.965920 -15.812591 -32.056666 5.857351 0.000000 0.000000 0.000000 21.339487 -2.422083 -0.885760 57.464164 16.825608 -0.410981 9.615741 26.811870 3.824577 0.000000 0.000000 0.000000 
